<svg xmlns="http://www.w3.org/2000/svg" viewBox="0 0 32 32"><path d="M16 4c-5 0-10 3-10 8 0 3 1.5 5 3 6.5V26a2 2 0 002 2h10a2 2 0 002-2v-7.5c1.5-1.5 3-3.5 3-6.5 0-5-5-8-10-8z" fill="#8B4513"/><path d="M12 14c0-2 1.5-4 4-4s4 2 4 4" stroke="#D2691E" stroke-width="1.5" fill="none"/><line x1="16" y1="2" x2="16" y2="5" stroke="#D4A017" stroke-width="1.5" stroke-linecap="round"/><line x1="12" y1="3" x2="13" y2="6" stroke="#D4A017" stroke-width="1.5" stroke-linecap="round"/><line x1="20" y1="3" x2="19" y2="6" stroke="#D4A017" stroke-width="1.5" stroke-linecap="round"/></svg>
